<svg width="167" height="45" viewBox="0 0 167 45" fill="none" xmlns="http://www.w3.org/2000/svg">
<g clip-path="url(#clip0_1_135)">
<path d="M33.2375 17.4584L12.4662 22.9422V17.8258L33.2375 12.342V17.4584Z" fill="#F37160"/>
<path d="M33.2375 27.1742L12.4662 32.658V27.5416L33.2375 22.0578V27.1742Z" fill="#007B78"/>
<path d="M22.8465 45.002C18.3256 45.002 13.9062 43.682 10.1472 41.2089C6.38816 38.7358 3.45838 35.2207 1.7283 31.1081C-0.00178418 26.9956 -0.454452 22.4702 0.427535 18.1043C1.30952 13.7384 3.48655 9.72808 6.68332 6.58044C9.88009 3.43281 13.953 1.28924 18.3871 0.420814C22.8211 -0.447616 27.4171 -0.00190589 31.5939 1.70158C35.7707 3.40507 39.3407 6.28982 41.8523 9.99105C44.364 13.6923 45.7046 18.0437 45.7046 22.4952C45.6973 28.4621 43.2867 34.1826 39.0016 38.4019C34.7164 42.6212 28.9066 44.9948 22.8465 45.002V45.002ZM22.8465 4.60129C19.2488 4.6013 15.732 5.65189 12.7409 7.62019C9.74974 9.58849 7.41867 12.3861 6.04254 15.659C4.66642 18.932 4.30706 22.5333 5.00993 26.0073C5.7128 29.4814 7.44632 32.6722 9.99121 35.1761C12.5361 37.6799 15.778 39.3844 19.3068 40.0738C22.8357 40.7632 26.4929 40.4067 29.8159 39.0492C33.1389 37.6917 35.9784 35.3944 37.9752 32.4477C39.9719 29.5011 41.0362 26.0375 41.0335 22.4952C41.0262 17.7493 39.1073 13.2 35.6977 9.84543C32.2882 6.49086 27.6665 4.60489 22.8465 4.60129V4.60129Z" fill="#00B7CE"/>
<path d="M66.0183 30.4128C64.0283 32.0865 62.204 32.0593 59.6888 32.0593H53.5389V13.0088H59.5091C61.8309 13.0088 64.0283 13.0088 65.7143 14.8594C66.4868 15.7266 66.8967 16.8498 66.8613 18.0027C66.8641 18.7723 66.6563 19.5283 66.26 20.1915C65.8636 20.8548 65.2932 21.4007 64.6087 21.772C65.573 22.0452 66.4143 22.6331 66.9944 23.4392C67.5746 24.2453 67.859 25.2217 67.8011 26.2081C67.8302 26.9941 67.6858 27.7771 67.3781 28.5029C67.0703 29.2288 66.6064 29.8804 66.0183 30.4128ZM60.1863 17.2679H58.2792V20.2344H60.1587C61.2366 20.2344 62.1211 19.9214 62.1211 18.7103C62.1211 17.4993 61.209 17.2679 60.1863 17.2679V17.2679ZM60.8082 24.303H58.3206V27.7865H60.8082C62.0382 27.7865 63.13 27.3647 63.13 25.9495C63.13 24.5343 61.9138 24.303 60.8082 24.303Z" fill="#231F20"/>
<path d="M78.0828 32.0593V24.2758C78.0828 22.7381 77.6405 21.2958 75.761 21.2958C73.8815 21.2958 73.3287 22.5068 73.3287 24.1261V32.0593H68.9755V13.0088H73.3287V19.0505C73.7285 18.4437 74.2879 17.9549 74.9474 17.6362C75.6069 17.3175 76.3418 17.1808 77.0739 17.2407C77.808 17.2186 78.5387 17.3476 79.2193 17.6194C79.8999 17.8912 80.5154 18.2999 81.0264 18.8192C82.4084 20.3841 82.4084 22.085 82.4084 24.0445V32.0321L78.0828 32.0593Z" fill="#231F20"/>
<path d="M95.1229 32.0593V30.508C94.6595 31.1847 94.0236 31.7294 93.2789 32.0877C92.5343 32.4459 91.707 32.6051 90.8801 32.5491C86.4163 32.5491 83.5832 29.1473 83.5832 24.9017C83.5289 23.923 83.6771 22.9435 84.0187 22.0228C84.3603 21.1021 84.8883 20.2593 85.5706 19.5455C86.2529 18.8317 87.0753 18.2618 87.988 17.8703C88.9007 17.4788 89.8846 17.2738 90.8801 17.2679C91.7027 17.2224 92.5234 17.3833 93.2655 17.7356C94.0076 18.0878 94.6467 18.6199 95.1229 19.2818V19.2818V17.7578H99.5038V32.0593H95.1229ZM91.4606 21.2685C90.9751 21.2662 90.4942 21.3611 90.0471 21.5475C89.6 21.7339 89.1961 22.0079 88.86 22.3529C88.5239 22.6978 88.2626 23.1065 88.0919 23.5541C87.9213 24.0016 87.8449 24.4786 87.8674 24.9562C87.8368 25.4438 87.9079 25.9324 88.0764 26.3919C88.2449 26.8514 88.5072 27.2721 88.847 27.6281C89.1869 27.984 89.5972 28.2677 90.0526 28.4616C90.508 28.6555 90.9989 28.7555 91.4951 28.7555C91.9913 28.7555 92.4822 28.6555 92.9376 28.4616C93.3931 28.2677 93.8034 27.984 94.1432 27.6281C94.4831 27.2721 94.7453 26.8514 94.9138 26.3919C95.0823 25.9324 95.1534 25.4438 95.1229 24.9562C95.1478 24.4723 95.0709 23.9886 94.8968 23.5355C94.7226 23.0824 94.4552 22.6697 94.1112 22.3233C93.7672 21.9769 93.3541 21.7044 92.8979 21.5229C92.4418 21.3414 91.9524 21.2548 91.4606 21.2685V21.2685Z" fill="#231F20"/>
<path d="M105.64 24.2078V32.0593H101.301V17.7578H105.447V19.2819C105.771 18.6207 106.293 18.0732 106.943 17.7131C107.593 17.3531 108.339 17.1977 109.081 17.268V21.5679C107.16 21.6224 105.64 21.9898 105.64 24.2078Z" fill="#231F20"/>
<path d="M120.87 32.0593V30.508C120.409 31.1846 119.776 31.7296 119.034 32.0879C118.291 32.4463 117.466 32.6054 116.641 32.5492C112.163 32.5492 109.33 29.1473 109.33 24.9017C109.276 23.9218 109.424 22.9413 109.767 22.0197C110.109 21.098 110.638 20.2546 111.322 19.5406C112.006 18.8266 112.83 18.257 113.744 17.8663C114.659 17.4756 115.644 17.272 116.641 17.2679C117.461 17.2248 118.279 17.3868 119.018 17.739C119.758 18.0911 120.395 18.6219 120.87 19.2818V19.2818V17.7578H125.209V32.0593H120.87ZM117.207 21.2685C116.723 21.268 116.244 21.3643 115.798 21.5515C115.353 21.7388 114.95 22.0131 114.616 22.3578C114.281 22.7026 114.021 23.1106 113.851 23.5573C113.681 24.0039 113.605 24.4798 113.628 24.9562C113.628 25.4244 113.722 25.888 113.904 26.3205C114.085 26.753 114.352 27.1461 114.688 27.4771C115.025 27.8082 115.424 28.0708 115.863 28.25C116.302 28.4291 116.773 28.5213 117.249 28.5213C117.724 28.5213 118.195 28.4291 118.634 28.25C119.074 28.0708 119.473 27.8082 119.809 27.4771C120.145 27.1461 120.412 26.753 120.594 26.3205C120.776 25.888 120.87 25.4244 120.87 24.9562C120.895 24.4723 120.818 23.9887 120.643 23.5355C120.469 23.0824 120.202 22.6697 119.858 22.3233C119.514 21.977 119.101 21.7044 118.645 21.5229C118.188 21.3414 117.699 21.2548 117.207 21.2685V21.2685Z" fill="#231F20"/>
<path d="M133.059 21.0099V32.0592H128.719V21.0099H126.577V17.7577H128.719V12.9951H133.059V17.7577H135.16V21.0099H133.059Z" fill="#231F20"/>
<path d="M149.753 24.4935C148.162 25.7524 146.131 26.3438 144.101 26.14H141.959V32.1137H137.232V13.0632H143.562C145.552 13.0632 147.929 13.1449 149.518 14.424C150.253 15.0478 150.838 15.824 151.232 16.6968C151.627 17.5695 151.82 18.5174 151.798 19.4724C151.818 20.4017 151.647 21.3254 151.295 22.1881C150.944 23.0509 150.419 23.835 149.753 24.4935V24.4935ZM143.797 17.3224H141.959V21.772H143.976C145.593 21.772 147.058 21.4046 147.058 19.4724C147.058 17.5401 145.414 17.2679 143.797 17.2679V17.3224Z" fill="#00B7CE"/>
<path d="M166.903 26.2081H156.013C156.135 26.9964 156.551 27.7116 157.18 28.2146C157.808 28.7177 158.604 28.9725 159.413 28.9296C159.933 28.9372 160.447 28.8167 160.908 28.5791C161.369 28.3415 161.762 27.9942 162.052 27.5688H166.502C165.953 28.9929 164.985 30.2234 163.723 31.1032C162.46 31.9831 160.959 32.4723 159.413 32.5084C157.865 32.5405 156.342 32.1154 155.041 31.2879C153.741 30.4604 152.722 29.2683 152.115 27.8654C151.509 26.4624 151.343 24.9128 151.639 23.4162C151.936 21.9196 152.68 20.5447 153.777 19.4685C154.874 18.3923 156.273 17.6642 157.794 17.3781C159.315 17.0919 160.888 17.2608 162.311 17.8629C163.734 18.4651 164.941 19.4729 165.776 20.7565C166.612 22.0402 167.038 23.5408 167 25.0651C167.003 25.4482 166.97 25.8307 166.903 26.2081V26.2081ZM159.357 20.8739C158.605 20.8388 157.863 21.0646 157.262 21.5122C156.661 21.9597 156.239 22.6006 156.068 23.3233H162.66C162.487 22.5995 162.062 21.9583 161.458 21.5109C160.855 21.0635 160.112 20.8382 159.357 20.8739V20.8739Z" fill="#00B7CE"/>
</g>
<defs>
<clipPath id="clip0_1_135">
<rect width="167" height="45" fill="white"/>
</clipPath>
</defs>
</svg>
