<svg width="30" height="30" viewBox="0 0 30 30" fill="none" xmlns="http://www.w3.org/2000/svg">
<path d="M17.2617 0.09375C15.75 0.369141 14.4023 1.13672 13.541 2.20898C13.1016 2.75977 12.6035 3.75 12.3926 4.48828C12.1172 5.45508 12.0703 6.07617 12.0703 8.77148V11.25H9.87305H7.67578V13.916V16.582H9.87305H12.0703V23.291V30H14.7656H17.4609V23.291V16.582L19.5527 16.5703L21.6504 16.5527L21.9492 14.1211C22.1191 12.7852 22.2656 11.5898 22.2832 11.4668L22.3125 11.25H19.8867H17.4609V9.15234C17.4609 6.85547 17.502 6.50977 17.7949 5.96484C17.9824 5.61328 18.3516 5.32617 18.7793 5.18555C19.2012 5.04492 20.0039 4.98633 21.4922 4.98047H22.793V2.58398V0.1875L22.459 0.152344C20.8652 -0.0175781 18.0586 -0.0527344 17.2617 0.09375Z" fill="#8A8A8D"/>
</svg>
