<svg width="114" height="40" viewBox="0 0 114 40" fill="none" xmlns="http://www.w3.org/2000/svg">
<path d="M110.006 24.0032L113.161 26.1928C112.137 27.7629 109.688 30.4568 105.454 30.4568C100.197 30.4568 96.2812 26.2217 96.2812 20.8341C96.2812 15.1011 100.238 11.2117 105.011 11.2117C109.812 11.2117 112.164 15.1873 112.925 17.3337L113.341 18.4286L100.971 23.7583C101.912 25.6887 103.379 26.6682 105.454 26.6682C107.53 26.6682 108.968 25.6022 110.006 24.0032V24.0032ZM100.307 20.5319L108.567 16.9593C108.111 15.7638 106.755 14.914 105.136 14.914C103.075 14.914 100.211 16.8155 100.307 20.5319Z" fill="#FF302F"/>
<path d="M90.3184 1.40184H94.3028V29.5781H90.3184V1.40161V1.40184Z" fill="#20B15A"/>
<path d="M84.0373 11.9603H87.8836V29.0736C87.8836 36.1751 83.8574 39.0994 79.0979 39.0994C74.6153 39.0994 71.9175 35.9592 70.9074 33.4095L74.4354 31.8824C75.0717 33.4525 76.6075 35.311 79.0979 35.311C82.1555 35.311 84.0373 33.3374 84.0373 29.6498V28.267H83.899C82.9857 29.4193 81.2425 30.4564 79.0288 30.4564C74.4077 30.4564 70.1738 26.2645 70.1738 20.8628C70.1738 15.4319 74.4077 11.197 79.0288 11.197C81.2287 11.197 82.9857 12.2198 83.899 13.3434H84.0373V11.9606V11.9603ZM84.3138 20.8628C84.3138 17.4631 82.1417 14.9854 79.3746 14.9854C76.5798 14.9854 74.2278 17.4631 74.2278 20.8628C74.2278 24.219 76.5798 26.6534 79.3746 26.6534C82.142 26.668 84.3141 24.219 84.3141 20.8628H84.3138Z" fill="#3686F7"/>
<path d="M48.2997 20.791C48.2997 26.337 44.1491 30.4136 39.0576 30.4136C33.9662 30.4136 29.8154 26.3227 29.8154 20.791C29.8154 15.2162 33.9662 11.1541 39.0576 11.1541C44.1491 11.1541 48.2997 15.2162 48.2997 20.791ZM44.2597 20.791C44.2597 17.3339 41.8522 14.9568 39.0576 14.9568C36.2629 14.9568 33.8554 17.3339 33.8554 20.791C33.8554 24.2193 36.2629 26.6252 39.0576 26.6252C41.8524 26.6252 44.2597 24.2193 44.2597 20.791Z" fill="#FF302F"/>
<path d="M68.4862 20.8341C68.4862 26.3801 64.3354 30.4565 59.2441 30.4565C54.1525 30.4565 50.002 26.3798 50.002 20.8341C50.002 15.2595 54.1525 11.2117 59.2441 11.2117C64.3354 11.2117 68.4862 15.2451 68.4862 20.8341V20.8341ZM64.4323 20.8341C64.4323 17.3771 62.025 15 59.2301 15C56.4354 15 54.0279 17.3771 54.0279 20.8341C54.0279 24.2624 56.4354 26.6682 59.2301 26.6682C62.0387 26.6682 64.4323 24.2481 64.4323 20.8341Z" fill="#FFBA40"/>
<path d="M14.6242 26.2359C8.82703 26.2359 4.28914 21.367 4.28914 15.3312C4.28914 9.29563 8.82703 4.42668 14.6242 4.42668C17.7511 4.42668 20.0338 5.70866 21.7218 7.35092L24.5029 4.45558C22.1509 2.10759 19.0102 0.321045 14.6242 0.321045C6.68268 0.321276 0 7.06302 0 15.3312C0 23.5998 6.68268 30.3413 14.6242 30.3413C18.9133 30.3413 22.1509 28.872 24.6828 26.1351C27.2837 23.4268 28.0862 19.6239 28.0862 16.5412C28.0862 15.5761 27.9756 14.5822 27.851 13.8476H14.6242V17.8521H24.0462C23.7695 20.3588 23.0086 22.0729 21.8879 23.2395C20.532 24.6658 18.3876 26.2359 14.6242 26.2359V26.2359Z" fill="#3686F7"/>
</svg>
