<svg width="60" height="60" viewBox="0 0 60 60" fill="none" xmlns="http://www.w3.org/2000/svg">
<rect width="60" height="60" rx="12" fill="#FAFAFB"/>
<g clip-path="url(#clip0_1_292)">
<path d="M21.0352 15.123C18.7969 15.5918 16.9453 16.9629 15.8848 18.9375C15.4805 19.6816 15.2168 20.4551 15.0586 21.3516C15.0234 21.5801 15 24.5801 15 30.0176C15 38.1855 15 38.3438 15.123 38.9238C15.4453 40.5176 16.2012 41.8945 17.3438 42.9668C18.3984 43.957 19.6172 44.584 21.0762 44.877C21.6562 45 21.8145 45 30 45C38.1855 45 38.3438 45 38.9238 44.877C40.5176 44.5547 41.8945 43.7988 42.9668 42.6562C43.957 41.6016 44.584 40.3828 44.877 38.9238C45 38.3438 45 38.1855 45 30.0176C45 24.5801 44.9766 21.5801 44.9414 21.3516C44.5195 18.9199 43.0898 16.9336 40.9629 15.832C40.2832 15.4805 39.7207 15.2812 38.9238 15.123C38.3438 15 38.1973 15 29.959 15.0059C21.8379 15.0059 21.5742 15.0117 21.0352 15.123ZM38.7012 17.6836C40.541 18.1992 41.8359 19.5059 42.3164 21.3281L42.4512 21.8262V30V38.1738L42.3164 38.6719C41.8301 40.5059 40.5059 41.8301 38.6719 42.3164L38.1738 42.4512H30H21.8262L21.3281 42.3164C19.4941 41.8301 18.1699 40.5059 17.6836 38.6719L17.5488 38.1738V30V21.8262L17.6836 21.3281C18.2051 19.3535 19.6992 17.9707 21.6973 17.6074C22.0371 17.543 23.748 17.5312 30.1758 17.5371L38.2324 17.5488L38.7012 17.6836Z" fill="#8A8A8D"/>
<path d="M37.4355 20.1152C37.248 20.1913 37.0371 20.3085 36.955 20.373C36.0351 21.0937 35.9882 22.4999 36.8554 23.2851C37.1543 23.5546 37.3418 23.6484 37.7695 23.7304C38.625 23.9003 39.4629 23.4726 39.8379 22.6816C40.0547 22.2187 40.0547 21.4921 39.8496 21.0644C39.6621 20.6952 39.3047 20.3378 38.9355 20.1562C38.5078 19.9452 37.875 19.9277 37.4355 20.1152Z" fill="#8A8A8D"/>
<path d="M28.67 22.5881C27.5977 22.7874 26.3614 23.3206 25.5059 23.9592C24.9317 24.387 24.1348 25.2131 23.7774 25.7522C23.1856 26.6487 22.7637 27.6975 22.5879 28.6936C22.4766 29.3616 22.4766 30.6389 22.5879 31.3069C22.8457 32.76 23.5313 34.1194 24.5508 35.1799C25.6758 36.3518 27.1289 37.137 28.6934 37.4124C29.3614 37.5237 30.6387 37.5237 31.3067 37.4124C34.3946 36.8674 36.8672 34.3948 37.4121 31.3069C37.5235 30.6389 37.5235 29.3616 37.4121 28.6936C37.2364 27.6917 36.8145 26.6487 36.2168 25.7522C35.8653 25.2131 35.0625 24.3811 34.5059 23.9651C33.6211 23.3088 32.3965 22.7815 31.3067 22.5881C30.6797 22.4827 29.2676 22.4827 28.67 22.5881ZM31.2012 25.1956C32.9766 25.6526 34.3301 27.0002 34.8106 28.7991C34.9102 29.1624 34.9395 29.4377 34.9395 30.0002C34.9395 30.5627 34.9102 30.8381 34.8106 31.2014C34.3301 33.0002 33 34.3245 31.2012 34.8108C30.5391 34.9924 29.461 34.9924 28.7989 34.8108C27 34.3245 25.67 33.0002 25.1895 31.2014C25.0137 30.5452 25.0137 29.4553 25.1895 28.7991C25.9043 26.1213 28.5762 24.5217 31.2012 25.1956Z" fill="#8A8A8D"/>
</g>
<defs>
<clipPath id="clip0_1_292">
<rect width="30" height="30" fill="white" transform="translate(15 15)"/>
</clipPath>
</defs>
</svg>
