<svg width="36" height="43" viewBox="0 0 36 43" fill="none" xmlns="http://www.w3.org/2000/svg">
<mask id="mask0_1_234" style="mask-type:alpha" maskUnits="userSpaceOnUse" x="0" y="0" width="36" height="43">
<path d="M16.4106 0.944813C17.3367 0.366646 18.5113 0.366647 19.4374 0.944814L34.5036 10.3505C35.3398 10.8726 35.848 11.7889 35.848 12.7747V29.9753C35.848 30.9611 35.3398 31.8774 34.5036 32.3995L19.4374 41.8052C18.5113 42.3834 17.3367 42.3833 16.4106 41.8052L1.3444 32.3995C0.508131 31.8774 0 30.9611 0 29.9753V12.7747C0 11.7889 0.508131 10.8726 1.3444 10.3505L16.4106 0.944813Z" fill="#C4C4C4"/>
</mask>
<g mask="url(#mask0_1_234)">
<rect x="7.67969" y="20.3452" width="3.21504" height="19.8428" fill="white"/>
<mask id="mask1_1_234" style="mask-type:alpha" maskUnits="userSpaceOnUse" x="11" y="12" width="8" height="5">
<rect x="18.2886" y="12.8604" width="3.21504" height="6.43008" transform="rotate(90 18.2886 12.8604)" fill="#CD6767"/>
</mask>
<g mask="url(#mask1_1_234)">
<path d="M11.8585 16.0754C11.8585 15.6532 11.9417 15.2351 12.1032 14.845C12.2648 14.455 12.5016 14.1006 12.8002 13.802C13.0987 13.5035 13.4531 13.2667 13.8432 13.1051C14.2333 12.9435 14.6513 12.8604 15.0735 12.8604L15.0735 16.0754L11.8585 16.0754Z" fill="white"/>
</g>
<mask id="mask2_1_234" style="mask-type:alpha" maskUnits="userSpaceOnUse" x="17" y="12" width="8" height="5">
<rect x="24.0032" y="12.8608" width="3.21504" height="6.43008" rx="0.178613" transform="rotate(90 24.0032 12.8608)" fill="#CD6767"/>
</mask>
<g mask="url(#mask2_1_234)">
<path d="M17.7517 16.0759C17.6531 16.0759 17.5726 15.9958 17.578 15.8973C17.6218 15.1097 17.954 14.3632 18.5148 13.8025C19.1177 13.1996 19.9355 12.8608 20.7881 12.8608C21.6408 12.8608 22.4586 13.1996 23.0615 13.8025C23.6222 14.3632 23.9544 15.1097 23.9982 15.8973C24.0037 15.9958 23.9232 16.0759 23.8246 16.0759H20.7881L17.7517 16.0759Z" fill="white"/>
</g>
<path d="M19.7077 24.7661C19.8064 24.7661 19.8864 24.8461 19.8864 24.9447L19.8864 27.8025C19.8864 27.9012 19.8064 27.9812 19.7077 27.9812L10.8943 27.9812L10.8943 24.7661L19.7077 24.7661Z" fill="white"/>
<path d="M24.0148 28.9355L20.7998 28.9355L20.7998 21.378C20.7998 21.2793 20.8798 21.1994 20.9784 21.1994L23.8362 21.1994C23.9349 21.1994 24.0148 21.2793 24.0148 21.378L24.0148 28.9355Z" fill="white"/>
<path d="M11.8509 16.0747L15.066 16.0747L15.066 23.6323C15.066 23.7309 14.986 23.8109 14.8874 23.8109L12.0296 23.8109C11.9309 23.8109 11.8509 23.7309 11.8509 23.6323L11.8509 16.0747Z" fill="white"/>
<path d="M24.9609 17.0298L24.9609 20.2448L16.1977 20.2448C16.0991 20.2448 16.0191 20.1649 16.0191 20.0662L16.0191 17.2084C16.0191 17.1098 16.0991 17.0298 16.1977 17.0298L24.9609 17.0298Z" fill="white"/>
<path d="M20.7999 28.9355L20.7999 32.1506L11.8581 32.1506L11.8581 29.1142C11.8581 29.0155 11.938 28.9355 12.0367 28.9355L20.7999 28.9355Z" fill="white"/>
<rect x="20.7494" y="12.8604" width="3.21504" height="5.67656" transform="rotate(90 20.7494 12.8604)" fill="white"/>
<mask id="mask3_1_234" style="mask-type:alpha" maskUnits="userSpaceOnUse" x="24" y="17" width="5" height="7">
<rect x="28.171" y="23.46" width="3.21504" height="6.43008" transform="rotate(-180 28.171 23.46)" fill="#CD6767"/>
</mask>
<g mask="url(#mask3_1_234)">
<path d="M24.9559 17.0299C25.8086 17.0299 26.6264 17.3686 27.2293 17.9715C27.8323 18.5745 28.171 19.3922 28.171 20.2449L24.9559 20.2449L24.9559 17.0299Z" fill="white"/>
</g>
<mask id="mask4_1_234" style="mask-type:alpha" maskUnits="userSpaceOnUse" x="24" y="22" width="5" height="8">
<rect x="28.1797" y="29.186" width="3.21504" height="6.43008" rx="0.178613" transform="rotate(-180 28.1797 29.186)" fill="#CD6767"/>
</mask>
<g mask="url(#mask4_1_234)">
<path d="M24.9646 22.9346C24.9646 22.8359 25.0447 22.7554 25.1432 22.7609C25.9308 22.8047 26.6773 23.1369 27.238 23.6976C27.841 24.3006 28.1797 25.1183 28.1797 25.971C28.1797 26.8237 27.841 27.6414 27.238 28.2444C26.6773 28.8051 25.9308 29.1373 25.1432 29.1811C25.0447 29.1866 24.9646 29.1061 24.9646 29.0074L24.9646 25.971L24.9646 22.9346Z" fill="white"/>
</g>
<rect x="28.1797" y="25.9707" width="3.21504" height="5.72679" transform="rotate(-180 28.1797 25.9707)" fill="white"/>
<path d="M11.8587 32.1499H15.0738L15.0738 42.2192C15.0738 42.3179 14.9938 42.3978 14.8951 42.3978H12.0373C11.9387 42.3978 11.8587 42.3179 11.8587 42.2192L11.8587 32.1499Z" fill="white"/>
<mask id="mask5_1_234" style="mask-type:alpha" maskUnits="userSpaceOnUse" x="7" y="17" width="4" height="7">
<rect x="7.67969" y="17.1309" width="3.21504" height="6.43008" rx="0.178613" fill="#CD6767"/>
</mask>
<g mask="url(#mask5_1_234)">
<circle cx="10.8947" cy="20.3459" r="3.21504" fill="white"/>
</g>
<mask id="mask6_1_234" style="mask-type:alpha" maskUnits="userSpaceOnUse" x="20" y="28" width="5" height="5">
<rect x="20.7999" y="32.1499" width="3.21504" height="3.21504" transform="rotate(-90 20.7999 32.1499)" fill="#CD6767"/>
</mask>
<g mask="url(#mask6_1_234)">
<path d="M24.0028 28.9353C24.0028 29.3576 23.9197 29.7756 23.7581 30.1657C23.5965 30.5558 23.3597 30.9102 23.0612 31.2087C22.7626 31.5073 22.4082 31.7441 22.0181 31.9057C21.6281 32.0672 21.21 32.1504 20.7878 32.1504L20.7878 28.9353L24.0028 28.9353Z" fill="white"/>
</g>
</g>
</svg>
