<svg width="36" height="43" viewBox="0 0 36 43" fill="none" xmlns="http://www.w3.org/2000/svg">
<mask id="mask0_1_47" style="mask-type:alpha" maskUnits="userSpaceOnUse" x="0" y="1" width="36" height="42">
<path d="M16.4243 1.68726C17.3437 1.12041 18.5042 1.12042 19.4237 1.68726L34.4899 10.9754C35.3339 11.4958 35.848 12.4165 35.848 13.4081V30.3329C35.848 31.3245 35.3339 32.2452 34.4899 32.7656L19.4237 42.0537C18.5042 42.6206 17.3437 42.6206 16.4243 42.0537L1.35809 32.7656C0.514008 32.2452 0 31.3245 0 30.3329V13.4081C0 12.4165 0.51401 11.4958 1.35809 10.9754L16.4243 1.68726Z" fill="#C4C4C4"/>
</mask>
<g mask="url(#mask0_1_47)">
<rect x="7.67969" y="20.8535" width="3.21504" height="19.5948" fill="white"/>
<mask id="mask1_1_47" style="mask-type:alpha" maskUnits="userSpaceOnUse" x="11" y="13" width="8" height="4">
<rect x="18.2886" y="13.4619" width="3.17485" height="6.43008" transform="rotate(90 18.2886 13.4619)" fill="#CD6767"/>
</mask>
<g mask="url(#mask1_1_47)">
<path d="M11.8585 16.6368C11.8585 16.2198 11.9417 15.807 12.1032 15.4218C12.2648 15.0366 12.5016 14.6866 12.8002 14.3918C13.0987 14.097 13.4531 13.8631 13.8432 13.7036C14.2333 13.544 14.6513 13.4619 15.0735 13.4619L15.0735 16.6368L11.8585 16.6368Z" fill="white"/>
</g>
<mask id="mask2_1_47" style="mask-type:alpha" maskUnits="userSpaceOnUse" x="17" y="13" width="8" height="4">
<rect x="24.0032" y="13.4624" width="3.17485" height="6.43008" rx="0.178613" transform="rotate(90 24.0032 13.4624)" fill="#CD6767"/>
</mask>
<g mask="url(#mask2_1_47)">
<path d="M17.7517 16.6373C17.6531 16.6373 17.5726 16.5572 17.5782 16.4587C17.6225 15.6818 17.9546 14.9455 18.5148 14.3923C19.1177 13.7969 19.9355 13.4624 20.7881 13.4624C21.6408 13.4624 22.4586 13.7969 23.0615 14.3923C23.6217 14.9455 23.9538 15.6818 23.9981 16.4587C24.0037 16.5572 23.9232 16.6373 23.8246 16.6373L20.7881 16.6373L17.7517 16.6373Z" fill="white"/>
</g>
<path d="M19.7076 25.2187C19.8063 25.2187 19.8862 25.2987 19.8862 25.3974L19.8862 28.215C19.8862 28.3136 19.8063 28.3936 19.7076 28.3936L10.8942 28.3936L10.8942 25.2187L19.7076 25.2187Z" fill="white"/>
<path d="M24.0146 29.3364L20.7996 29.3364L20.7996 21.8755C20.7996 21.7769 20.8796 21.6969 20.9782 21.6969L23.836 21.6969C23.9347 21.6969 24.0146 21.7769 24.0146 21.8755L24.0146 29.3364Z" fill="white"/>
<path d="M11.8511 16.6362L15.0661 16.6362L15.0661 24.0971C15.0661 24.1958 14.9861 24.2757 14.8875 24.2757L12.0297 24.2757C11.931 24.2757 11.8511 24.1958 11.8511 24.0971L11.8511 16.6362Z" fill="white"/>
<path d="M24.9609 17.5791L24.9609 20.754L16.1977 20.754C16.0991 20.754 16.0191 20.674 16.0191 20.5753L16.0191 17.7577C16.0191 17.6591 16.0991 17.5791 16.1977 17.5791L24.9609 17.5791Z" fill="white"/>
<path d="M20.7998 29.3364L20.7998 32.5113L11.858 32.5113L11.858 29.515C11.858 29.4164 11.9379 29.3364 12.0366 29.3364L20.7998 29.3364Z" fill="white"/>
<rect x="20.7494" y="13.4619" width="3.17485" height="5.67656" transform="rotate(90 20.7494 13.4619)" fill="white"/>
<mask id="mask3_1_47" style="mask-type:alpha" maskUnits="userSpaceOnUse" x="24" y="17" width="5" height="7">
<rect x="28.1709" y="23.9287" width="3.21504" height="6.34971" transform="rotate(-180 28.1709 23.9287)" fill="#CD6767"/>
</mask>
<g mask="url(#mask3_1_47)">
<path d="M24.9559 17.579C25.8085 17.579 26.6263 17.9135 27.2292 18.5089C27.8322 19.1043 28.1709 19.9118 28.1709 20.7539L24.9559 20.7539L24.9559 17.579Z" fill="white"/>
</g>
<mask id="mask4_1_47" style="mask-type:alpha" maskUnits="userSpaceOnUse" x="24" y="23" width="5" height="7">
<rect x="28.1797" y="29.5835" width="3.21504" height="6.34971" rx="0.178613" transform="rotate(-180 28.1797 29.5835)" fill="#CD6767"/>
</mask>
<g mask="url(#mask4_1_47)">
<path d="M24.9646 23.4124C24.9646 23.3138 25.0447 23.2333 25.1432 23.2387C25.9308 23.2819 26.6773 23.61 27.238 24.1637C27.841 24.7591 28.1797 25.5666 28.1797 26.4086C28.1797 27.2507 27.841 28.0582 27.238 28.6536C26.6773 29.2073 25.9308 29.5354 25.1432 29.5786C25.0447 29.584 24.9646 29.5035 24.9646 29.4049L24.9646 26.4086L24.9646 23.4124Z" fill="white"/>
</g>
<rect x="28.1797" y="26.4082" width="3.21504" height="5.65521" transform="rotate(-180 28.1797 26.4082)" fill="white"/>
<path d="M11.8589 32.5107H15.0739L15.0739 42.452C15.0739 42.5506 14.994 42.6306 14.8953 42.6306H12.0375C11.9389 42.6306 11.8589 42.5506 11.8589 42.452L11.8589 32.5107Z" fill="white"/>
<mask id="mask5_1_47" style="mask-type:alpha" maskUnits="userSpaceOnUse" x="7" y="17" width="4" height="8">
<rect x="7.67969" y="17.6792" width="3.21504" height="6.34971" rx="0.178613" fill="#CD6767"/>
</mask>
<g mask="url(#mask5_1_47)">
<ellipse cx="10.8947" cy="20.8541" rx="3.21504" ry="3.17485" fill="white"/>
</g>
<mask id="mask6_1_47" style="mask-type:alpha" maskUnits="userSpaceOnUse" x="20" y="29" width="5" height="4">
<rect x="20.7998" y="32.5107" width="3.17485" height="3.21504" transform="rotate(-90 20.7998 32.5107)" fill="#CD6767"/>
</mask>
<g mask="url(#mask6_1_47)">
<path d="M24.0027 29.3359C24.0027 29.7528 23.9196 30.1657 23.758 30.5509C23.5964 30.936 23.3596 31.286 23.061 31.5808C22.7625 31.8757 22.4081 32.1095 22.018 32.2691C21.6279 32.4286 21.2099 32.5107 20.7877 32.5107L20.7877 29.3359L24.0027 29.3359Z" fill="white"/>
</g>
</g>
</svg>
