<svg width="30" height="30" viewBox="0 0 30 30" fill="none" xmlns="http://www.w3.org/2000/svg">
<path d="M28.1836 2.54312C28.0371 2.58413 25.7168 3.4689 23.0273 4.50015C20.3379 5.5314 14.4727 7.77554 9.99023 9.49234C5.50781 11.2091 1.62305 12.6974 1.34766 12.8087C0.421875 13.1837 0 13.5705 0 14.0627C0 14.3791 0.146484 14.5841 0.527344 14.7892C0.785156 14.9298 7.59961 17.0978 7.85156 17.1212C7.89844 17.1271 11.502 14.9005 15.8613 12.1701C20.2148 9.44546 23.8652 7.17203 23.9707 7.11343C24.2051 6.99624 24.5742 6.97281 24.6797 7.07828C24.7383 7.13687 24.7324 7.17789 24.668 7.28921C24.6211 7.36539 21.6914 10.0197 18.1641 13.1837L11.748 18.9435L11.5371 21.9084C11.4199 23.5373 11.3027 25.1193 11.2852 25.4123L11.2441 25.9572H11.502C11.9707 25.9572 12.2461 25.7404 14.1738 23.8947L15.9902 22.1544L19.4648 24.6974C21.7559 26.3791 23.0508 27.2873 23.2617 27.3752C23.4727 27.4572 23.7188 27.5041 23.9648 27.5041C24.5801 27.5099 24.9434 27.2404 25.248 26.5431C25.3066 26.3966 26.4082 21.3752 27.6855 15.381C29.9766 4.63492 30.0117 4.47671 29.9883 3.92007C29.9707 3.41617 29.9473 3.32242 29.7891 3.07046C29.4785 2.56656 28.8223 2.34976 28.1836 2.54312Z" fill="#8A8A8D"/>
</svg>
