<svg width="30" height="30" viewBox="0 0 30 30" fill="none" xmlns="http://www.w3.org/2000/svg">
<path d="M10.4884 4.92186C7.42392 5.02147 5.2501 5.17968 4.23642 5.38475C2.9708 5.64257 1.93369 6.55663 1.53525 7.76366C1.08994 9.09374 0.80869 13.1719 0.931737 16.3887C1.07236 19.8926 1.34775 21.6445 1.90439 22.4824C2.56064 23.4726 3.39853 23.959 4.80478 24.1641C7.30674 24.5273 13.6817 24.6973 19.0138 24.5508C23.3497 24.4277 25.4884 24.2402 26.3966 23.9004C26.836 23.7363 27.4864 23.2617 27.8087 22.8691C28.4767 22.0547 28.711 21.0879 28.9571 18.1933C29.0567 17.0215 29.0567 12.3398 28.9571 11.1621C28.8165 9.46288 28.6466 8.40819 28.4122 7.69335C28.0899 6.72069 27.1407 5.80663 26.1329 5.5078C25.3653 5.27343 23.6427 5.09764 20.9767 4.98046C19.1544 4.89843 12.4513 4.85741 10.4884 4.92186ZM15.797 12.6445C17.6954 13.7344 19.2892 14.6543 19.3419 14.6836C19.4181 14.7246 18.6095 15.2109 15.8731 16.7871C13.9103 17.9121 12.2755 18.8437 12.2462 18.8555C12.2052 18.873 12.1876 17.4316 12.1876 14.7363C12.1876 11.2441 12.1993 10.5996 12.2696 10.623C12.3106 10.6406 13.8985 11.5488 15.797 12.6445Z" fill="#8A8A8D"/>
</svg>
